<svg width="69" height="57" viewBox="0 0 69 57" fill="none" xmlns="http://www.w3.org/2000/svg">
<g clip-path="url(#clip0_117_2794)">
<path d="M53.3703 18.1442C52.9122 17.7774 52.2694 17.6107 51.6405 17.6959C51.0103 17.7808 50.4661 18.1068 50.1737 18.5746C49.1683 20.184 47.8913 21.6629 46.3889 22.9703C46.5387 22.0259 46.614 21.0758 46.614 20.1232C46.614 18.2953 46.3167 16.4144 45.7301 14.5318C43.8012 8.34848 38.7433 3.11929 31.8538 0.185183C31.2539 -0.0701827 30.5392 -0.0612167 29.9491 0.209092C29.3589 0.479512 28.9724 0.9753 28.9195 1.52987C28.3824 7.14902 24.8697 12.2612 19.2768 15.5589C19.2028 15.6029 19.1293 15.6474 19.0558 15.6917C18.9036 15.7834 18.7601 15.8702 18.626 15.943C18.6051 15.9545 18.5843 15.9663 18.5638 15.9783C15.0463 18.0535 12.1439 20.8197 10.17 23.9787C8.16436 27.192 7.14742 30.6401 7.14742 34.2271C7.14742 36.0544 7.44471 37.9354 8.0311 39.8182C11.1256 49.7425 21.9646 56.6738 34.3897 56.6738C49.4103 56.6738 61.6303 46.6042 61.6303 34.2271C61.6303 28.1236 58.6969 22.4119 53.3703 18.1442Z" fill="#4488ee"/>
<ellipse cx="33.35" cy="34.348" rx="8.33718" ry="6.8696" fill="#F8F8F8"/>
</g>
<defs>
<clipPath id="clip0_117_2794">
<rect width="68.7817" height="56.6742" fill="white"/>
</clipPath>
</defs>
</svg>
